<?xml version="1.0" encoding="UTF-8" standalone="no"?>
<svg
   viewBox="0 0 50 56.395481"
   version="1.1"
   id="svg489"
   sodipodi:docname="express.svg"
   width="50"
   height="56.395481"
   inkscape:version="1.2 (dc2aedaf03, 2022-05-15)"
   xmlns:inkscape="http://www.inkscape.org/namespaces/inkscape"
   xmlns:sodipodi="http://sodipodi.sourceforge.net/DTD/sodipodi-0.dtd"
   xmlns="http://www.w3.org/2000/svg"
   xmlns:svg="http://www.w3.org/2000/svg">
  <defs
     id="defs493" />
  <sodipodi:namedview
     id="namedview491"
     pagecolor="#505050"
     bordercolor="#ffffff"
     borderopacity="1"
     inkscape:showpageshadow="0"
     inkscape:pageopacity="0"
     inkscape:pagecheckerboard="1"
     inkscape:deskcolor="#505050"
     showgrid="false"
     inkscape:zoom="1.5898438"
     inkscape:cx="24.845209"
     inkscape:cy="28.619165"
     inkscape:window-width="1920"
     inkscape:window-height="1001"
     inkscape:window-x="-9"
     inkscape:window-y="-9"
     inkscape:window-maximized="1"
     inkscape:current-layer="svg489" />
  <!--! Font Awesome Pro 6.1.1 by @fontawesome - https://fontawesome.com License - https://fontawesome.com/license (Commercial License) Copyright 2022 Fonticons, Inc. -->
  <path
     d="m 24.98881,56.395482 c -0.74978,0 -1.51074,-0.20143 -2.17099,-0.58192 l -6.90466,-4.0846 c -1.02954,-0.58191 -0.52596,-0.78335 -0.19024,-0.89525 1.37645,-0.4812 1.65622,-0.58192 3.1222,-1.42122 0.15667,-0.0895 0.3581,-0.0559 0.51477,0.0448 l 5.30439,3.14459 c 0.19024,0.1119 0.45882,0.1119 0.63787,0 l 20.6692,-11.92928 c 0.19024,-0.11191 0.31334,-0.33572 0.31334,-0.55953 v -23.85855 c 0,-0.23501 -0.1231,-0.44763 -0.32453,-0.57073 L 25.30215,3.7657125 c -0.19024,-0.11191 -0.44763,-0.11191 -0.63787,0 L 4.01746,15.694982 c -0.20143,0.11191 -0.32453,0.33572 -0.32453,0.57073 v 23.84736 c 0,0.22381 0.1231,0.44762 0.32453,0.54834 l 5.66249,3.26768 c 3.07744,1.53313 4.95747,-0.26857 4.95747,-2.09266 v -23.54521 c 0,-0.33572 0.26858,-0.5931 0.6043,-0.5931 h 2.61862 c 0.32453,0 0.6043,0.25738 0.6043,0.5931 v 23.5564 c 0,4.0958 -2.23814,6.44584 -6.12131,6.44584 -1.1974,0 -2.13742,0 -4.75604,-1.29812 l -5.4163,-3.1222 C 0.82811,43.100942 0,41.657342 0,40.101842 v -23.84736 c 0,-1.54432 0.82811,-2.99911 2.17099,-3.77127 L 22.81782,0.5539425 c 1.30931,-0.73859 3.04386,-0.73859 4.34198,0 L 47.82901,12.494412 C 49.17189,13.266562 50,14.710162 50,16.265672 v 23.84736 c 0,1.54431 -0.82811,2.98791 -2.17099,3.77126 L 27.1598,55.813562 c -0.66025,0.38049 -1.41002,0.58192 -2.17099,0.58192 z m 16.68532,-23.51164 c 0,-4.46508 -3.02149,-5.6513 -9.36661,-6.4906 -6.42346,-0.85049 -7.07252,-1.28693 -7.07252,-2.78648 0,-1.24217 0.54835,-2.89839 5.30439,-2.89839 4.24127,0 5.80797,0.91764 6.45703,3.78245 0.0559,0.26858 0.30215,0.47001 0.58191,0.47001 h 2.68577 c 0.16786,0 0.32453,-0.0671 0.43644,-0.19024 0.1119,-0.1231 0.16786,-0.29096 0.15667,-0.45882 -0.41406,-4.93509 -3.69293,-7.22918 -10.31782,-7.22918 -5.89749,0 -9.41137,2.48433 -9.41137,6.65846 0,4.52104 3.50269,5.77439 9.15399,6.33393 6.77036,0.66025 7.29632,1.65622 7.29632,2.98791 0,2.30528 -1.85765,3.29006 -6.21083,3.29006 -5.47224,0 -6.66965,-1.37645 -7.07251,-4.09579 -0.0448,-0.29096 -0.29096,-0.50358 -0.59311,-0.50358 h -2.67457 c -0.33573,0 -0.59311,0.26858 -0.59311,0.59311 0,3.4803 1.89123,7.63205 10.94449,7.63205 6.53537,-0.0112 10.29544,-2.59624 10.29544,-7.0949 z"
     id="path487"
     style="fill:#ffffff;stroke-width:0.111907" />
</svg>
