<?xml version="1.0" encoding="UTF-8" standalone="no"?>
<svg
   viewBox="0 0 50 40.32618"
   version="1.1"
   id="svg1214"
   sodipodi:docname="git.svg"
   width="50"
   height="40.32618"
   inkscape:version="1.2 (dc2aedaf03, 2022-05-15)"
   xmlns:inkscape="http://www.inkscape.org/namespaces/inkscape"
   xmlns:sodipodi="http://sodipodi.sourceforge.net/DTD/sodipodi-0.dtd"
   xmlns="http://www.w3.org/2000/svg"
   xmlns:svg="http://www.w3.org/2000/svg">
  <defs
     id="defs1218" />
  <sodipodi:namedview
     id="namedview1216"
     pagecolor="#505050"
     bordercolor="#ffffff"
     borderopacity="1"
     inkscape:showpageshadow="0"
     inkscape:pageopacity="0"
     inkscape:pagecheckerboard="1"
     inkscape:deskcolor="#505050"
     showgrid="false"
     inkscape:zoom="1.5898438"
     inkscape:cx="25.474201"
     inkscape:cy="20.44226"
     inkscape:window-width="1920"
     inkscape:window-height="1001"
     inkscape:window-x="-9"
     inkscape:window-y="-9"
     inkscape:window-maximized="1"
     inkscape:current-layer="svg1214" />
  <!--! Font Awesome Pro 6.1.1 by @fontawesome - https://fontawesome.com License - https://fontawesome.com/license (Commercial License) Copyright 2022 Fonticons, Inc. -->
  <path
     d="M 21.12207,10.63086 H 13.37891 C 9.47266,9.60645 0.63574,9.87305 0.63574,17.93457 c 0,2.93848 1.46485,5.00293 3.41797,5.95704 -2.45117,2.24609 -3.61328,3.30566 -3.61328,4.80566 0,1.07422 0.43652,2.06445 1.74707,2.61816 C 0.79395,32.625 0,33.57618 0,35.36329 c 0,3.13574 2.73926,4.96289 9.9248,4.96289 6.90918,0 10.917,-2.58008 10.917,-7.14649 0,-5.72851 -4.41016,-5.51758 -14.80762,-6.15234 L 7.3457,24.92286 c 2.66309,0.74023 11.5918,0.97656 11.5918,-6.62989 0,-1.82617 -0.75488,-3.09668 -1.46484,-4.01074 l 3.65332,-0.27734 z m -6.19336,23.62305 c 0,3.13086 -10.24316,3.13477 -10.24316,0.2373 0,-0.79492 0.51465,-1.46484 1.03222,-2.10351 7.58887,0.51758 9.21094,0.3291 9.21094,1.86621 z M 9.9668,21.11133 c -5.15625,0 -4.92774,-6.94922 0.11718,-6.94922 4.83789,0 4.96289,6.94922 -0.11718,6.94922 z m 13.01757,9.81543 V 27.792 c 2.61231,-0.35743 2.66016,-0.19532 2.66016,-1.07422 v -11.6709 c 0,-0.83008 -0.20019,-0.7207 -2.66016,-1.58789 l 0.43653,-3.21485 h 8.21972 v 16.47559 c 0,0.63574 0.0391,0.71484 0.63575,0.79492 l 2.02441,0.27735 v 3.13476 z m 5.12208,-23.8584 c -2.2627,0 -3.57325,-1.31152 -3.57325,-3.57519 C 24.5332,1.2295 25.84375,0 28.10645,0 c 2.30273,0 3.61328,1.23243 3.61328,3.49317 0,2.26074 -1.31055,3.57519 -3.61328,3.57519 z M 50,29.3877 c -1.70801,0.83301 -4.20898,1.58789 -6.47266,1.58789 -4.72461,0 -6.51074,-1.9043 -6.51074,-6.39258 V 14.18164 c 0,-0.52929 0.10254,-0.39648 -3.09668,-0.39648 V 10.25098 C 37.41406,9.85352 38.80273,8.10254 39.23926,3.7793 h 3.77246 c 0,6.42871 -0.13086,6.03613 0.31836,6.03613 h 5.5957 v 3.96973 h -5.91406 v 9.4873 c 0,0.67579 -0.48047,5.02051 5.91504,2.6211 z"
     id="path1212"
     style="fill:#ffffff;stroke-width:0.0976562" />
</svg>
