<?xml version="1.0" encoding="UTF-8" standalone="no"?>
<svg
   viewBox="0 0 50 50"
   version="1.1"
   id="svg4"
   sodipodi:docname="javascript.svg"
   width="50"
   height="50"
   inkscape:version="1.2 (dc2aedaf03, 2022-05-15)"
   xmlns:inkscape="http://www.inkscape.org/namespaces/inkscape"
   xmlns:sodipodi="http://sodipodi.sourceforge.net/DTD/sodipodi-0.dtd"
   xmlns="http://www.w3.org/2000/svg"
   xmlns:svg="http://www.w3.org/2000/svg">
  <defs
     id="defs8" />
  <sodipodi:namedview
     id="namedview6"
     pagecolor="#505050"
     bordercolor="#ffffff"
     borderopacity="1"
     inkscape:showpageshadow="0"
     inkscape:pageopacity="0"
     inkscape:pagecheckerboard="1"
     inkscape:deskcolor="#505050"
     showgrid="false"
     inkscape:zoom="1.5898438"
     inkscape:cx="25.474201"
     inkscape:cy="25.474201"
     inkscape:window-width="1920"
     inkscape:window-height="1001"
     inkscape:window-x="-9"
     inkscape:window-y="-9"
     inkscape:window-maximized="1"
     inkscape:current-layer="svg4" />
  <!--! Font Awesome Pro 6.1.1 by @fontawesome - https://fontawesome.com License - https://fontawesome.com/license (Commercial License) Copyright 2022 Fonticons, Inc. -->
  <path
     d="M 44.64286,0 H 5.35714 C 2.39955,0 0,2.39955 0,5.35714 V 44.64286 C 0,47.60045 2.39955,50 5.35714,50 H 44.64286 C 47.60045,50 50,47.60045 50,44.64286 V 5.35714 C 50,2.39955 47.60045,0 44.64286,0 Z M 27.20982,38.99554 c 0,4.86607 -2.85714,7.08705 -7.02009,7.08705 -3.76116,0 -5.9375,-1.94197 -7.05357,-4.29688 l 3.82813,-2.31026 c 0.7366,1.3058 1.40625,2.41071 3.02455,2.41071 1.54018,0 2.52232,-0.60268 2.52232,-2.95759 V 22.95759 h 4.69866 z m 11.11607,7.08705 c -4.36384,0 -7.1875,-2.07589 -8.56027,-4.79911 l 3.82813,-2.20982 c 1.00446,1.64063 2.32143,2.85714 4.6317,2.85714 1.94196,0 3.19196,-0.97098 3.19196,-2.32143 0,-1.60714 -1.27232,-2.17633 -3.42634,-3.125 L 36.8192,35.98214 c -3.39286,-1.43973 -5.63616,-3.25893 -5.63616,-7.08705 0,-3.52679 2.68973,-6.20536 6.875,-6.20536 2.99107,0 5.13392,1.03795 6.6741,3.76116 l -3.66071,2.34375 c -0.80357,-1.43973 -1.67411,-2.00893 -3.02456,-2.00893 -1.37276,0 -2.2433,0.87054 -2.2433,2.00893 0,1.40625 0.87054,1.97545 2.89063,2.85715 l 1.17187,0.50223 c 3.99554,1.70759 6.23884,3.45982 6.23884,7.38839 0,4.21875 -3.32589,6.54018 -7.77902,6.54018 z"
     id="path2"
     style="fill:#ffffff;stroke-width:0.111607" />
</svg>
