<?xml version="1.0" encoding="UTF-8" standalone="no"?>
<svg
   viewBox="0 0 40 53.333328"
   version="1.1"
   id="svg1065"
   sodipodi:docname="json.svg"
   width="40"
   height="53.333328"
   inkscape:version="1.2 (dc2aedaf03, 2022-05-15)"
   xmlns:inkscape="http://www.inkscape.org/namespaces/inkscape"
   xmlns:sodipodi="http://sodipodi.sourceforge.net/DTD/sodipodi-0.dtd"
   xmlns="http://www.w3.org/2000/svg"
   xmlns:svg="http://www.w3.org/2000/svg">
  <defs
     id="defs1069" />
  <sodipodi:namedview
     id="namedview1067"
     pagecolor="#505050"
     bordercolor="#ffffff"
     borderopacity="1"
     inkscape:showpageshadow="0"
     inkscape:pageopacity="0"
     inkscape:pagecheckerboard="1"
     inkscape:deskcolor="#505050"
     showgrid="false"
     inkscape:zoom="1.5898438"
     inkscape:cx="19.813268"
     inkscape:cy="27.361179"
     inkscape:window-width="1920"
     inkscape:window-height="1001"
     inkscape:window-x="-9"
     inkscape:window-y="-9"
     inkscape:window-maximized="1"
     inkscape:current-layer="svg1065" />
  <!--! Font Awesome Pro 6.1.1 by @fontawesome - https://fontawesome.com License - https://fontawesome.com/license (Commercial License) Copyright 2022 Fonticons, Inc. -->
  <path
     d="M 23.333336,13.333328 V 0 H 5 C 2.238544,0 0,2.238536 0,5 v 43.333328 c 0,2.760416 2.238544,5 5,5 h 30 c 2.761456,0 5,-2.238536 5,-5 V 16.666664 H 26.760416 c -1.937496,0 -3.42708,-1.489584 -3.42708,-3.333336 z M 16.05208,36.85416 c 0.813752,0.813752 0.813752,2.135424 0,2.94896 -0.406248,0.415624 -0.937496,0.613544 -1.468744,0.613544 -0.531256,0 -1.065624,-0.201872 -1.47292,-0.608752 l -5,-5 c -0.813752,-0.813752 -0.813752,-2.135416 0,-2.94896 l 5,-5 c 0.813752,-0.813744 2.132296,-0.813744 2.945832,0 0.813544,0.813752 0.813752,2.135424 0,2.94896 l -3.525,3.525416 z m 15.833336,-5 c 0.813752,0.813752 0.813752,2.135424 0,2.94896 l -5,5 c -0.406248,0.415624 -0.937496,0.613544 -1.468752,0.613544 -0.531248,0 -1.065624,-0.201872 -1.472912,-0.608752 -0.813752,-0.813752 -0.813752,-2.135416 0,-2.94896 l 3.525,-3.525624 -3.527088,-3.525 c -0.813744,-0.813744 -0.813744,-2.135416 0,-2.948952 0.813752,-0.813544 2.132296,-0.813752 2.945832,0 z M 26.666664,0 V 13.333328 H 40 Z"
     id="path1063"
     style="fill:#ffffff;stroke-width:0.104166" />
</svg>
