<?xml version="1.0" encoding="UTF-8" standalone="no"?>
<svg
   viewBox="0 0 70 42.873646"
   version="1.1"
   id="svg626"
   sodipodi:docname="nodejs.svg"
   width="70"
   height="42.873646"
   inkscape:version="1.2 (dc2aedaf03, 2022-05-15)"
   xmlns:inkscape="http://www.inkscape.org/namespaces/inkscape"
   xmlns:sodipodi="http://sodipodi.sourceforge.net/DTD/sodipodi-0.dtd"
   xmlns="http://www.w3.org/2000/svg"
   xmlns:svg="http://www.w3.org/2000/svg">
  <defs
     id="defs630" />
  <sodipodi:namedview
     id="namedview628"
     pagecolor="#505050"
     bordercolor="#ffffff"
     borderopacity="1"
     inkscape:showpageshadow="0"
     inkscape:pageopacity="0"
     inkscape:pagecheckerboard="1"
     inkscape:deskcolor="#505050"
     showgrid="false"
     inkscape:zoom="1.5898438"
     inkscape:cx="35.538084"
     inkscape:cy="-29.248157"
     inkscape:window-width="1920"
     inkscape:window-height="1001"
     inkscape:window-x="-9"
     inkscape:window-y="-9"
     inkscape:window-maximized="1"
     inkscape:current-layer="svg626" />
  <!--! Font Awesome Pro 6.1.1 by @fontawesome - https://fontawesome.com License - https://fontawesome.com/license (Commercial License) Copyright 2022 Fonticons, Inc. -->
  <path
     d="m 34.595337,42.873378 c -0.229697,0 -0.459381,-0.06566 -0.667197,-0.175 l -2.099999,-1.246867 c -0.317184,-0.175 -0.164052,-0.240632 -0.05474,-0.273434 0.415631,-0.142198 0.503131,-0.175 0.951565,-0.4375 0.04368,-0.02184 0.10934,-0.0112 0.153118,0.0112 l 1.618749,0.9625 c 0.05474,0.03276 0.142198,0.03276 0.196882,0 l 6.321864,-3.65313 c 0.05474,-0.03276 0.09842,-0.09842 0.09842,-0.175 v -7.295298 c 0,-0.07658 -0.03276,-0.142198 -0.09842,-0.175 l -6.321864,-3.642196 c -0.05474,-0.03276 -0.13118,-0.03276 -0.196882,0 l -6.321864,3.642196 c -0.06566,0.03276 -0.09842,0.10934 -0.09842,0.175 v 7.295298 c 0,0.06566 0.04368,0.13118 0.09842,0.164066 l 1.728117,0.995315 c 0.940632,0.470316 1.520315,-0.0875 1.520315,-0.634382 v -7.207797 c 0,-0.09842 0.07658,-0.185948 0.185934,-0.185948 h 0.798447 c 0.09842,0 0.185934,0.07658 0.185934,0.185948 v 7.207797 c 0,1.257816 -0.678131,1.96875 -1.870314,1.96875 -0.360934,0 -0.65625,0 -1.454684,-0.39375 l -1.662499,-0.951552 c -0.404683,-0.240632 -0.667183,-0.678132 -0.667183,-1.148447 v -7.295298 c 0,-0.470315 0.251552,-0.918749 0.667183,-1.148447 l 6.321865,-3.653116 c 0.404698,-0.229684 0.929697,-0.229684 1.323447,0 l 6.321864,3.653116 c 0.404684,0.240632 0.667184,0.678132 0.667184,1.148447 v 7.295298 c 0,0.470315 -0.251552,0.918749 -0.667184,1.148447 l -6.321864,3.653116 c -0.185948,0.12026 -0.415632,0.185934 -0.65625,0.185934 z m 5.107799,-7.196863 c 0,-1.367184 -0.918749,-1.728132 -2.865616,-1.990631 -1.968749,-0.2625 -2.165631,-0.39375 -2.165631,-0.853118 0,-0.382815 0.164066,-0.885933 1.618749,-0.885933 1.301566,0 1.782815,0.284368 1.979697,1.159367 0.02184,0.0875 0.0875,0.142184 0.175,0.142184 h 0.820301 c 0.05474,0 0.09842,-0.02184 0.13118,-0.05474 0.03276,-0.04368 0.05474,-0.0875 0.04368,-0.142184 -0.13118,-1.509381 -1.126551,-2.209381 -3.149998,-2.209381 -1.804683,0 -2.87655,0.765632 -2.87655,2.034381 0,1.389065 1.071867,1.760933 2.799998,1.935933 2.067183,0.207816 2.231249,0.503132 2.231249,0.907816 0,0.710933 -0.568749,1.006249 -1.903131,1.006249 -1.673433,0 -2.045315,-0.415632 -2.165616,-1.246881 -0.0112,-0.0875 -0.0875,-0.153118 -0.185948,-0.153118 h -0.820302 c -0.09842,0 -0.185948,0.07658 -0.185948,0.185934 0,1.060933 0.579698,2.329682 3.34688,2.329682 2.023433,0 3.171866,-0.787499 3.171866,-2.165616 z m 5.960945,-5.479682 c 0,0.667184 -0.546882,1.214052 -1.214066,1.214052 -0.667184,0 -1.214065,-0.546868 -1.214065,-1.214052 0,-0.689065 0.568749,-1.214064 1.214065,-1.214064 0.65625,-0.0112 1.214066,0.524999 1.214066,1.214064 z m -0.196882,0 c 0,-0.568749 -0.459368,-1.017197 -1.028118,-1.017197 -0.557816,0 -1.017197,0.448448 -1.017197,1.017197 0,0.56875 0.459381,1.028118 1.017197,1.028118 0.56875,-0.0112 1.028118,-0.470316 1.028118,-1.028118 z m -0.492184,0.678118 h -0.284382 c -0.0112,-0.06566 -0.05474,-0.415618 -0.05474,-0.426566 -0.02184,-0.07658 -0.04368,-0.12026 -0.142184,-0.12026 h -0.240632 v 0.546868 h -0.2625 V 29.50781 h 0.470316 c 0.164066,0 0.48125,0 0.48125,0.360934 0,0.251566 -0.164066,0.30625 -0.2625,0.339065 0.185934,0.0112 0.196882,0.13118 0.229684,0.30625 0.0112,0.10934 0.03276,0.295316 0.06566,0.360934 z m -0.30625,-0.962499 c 0,-0.185934 -0.13118,-0.185934 -0.196882,-0.185934 h -0.21875 v 0.382816 h 0.207816 c 0.175,0 0.207816,-0.12026 0.207816,-0.196882 z M 15.017217,14.326527 c 0,-0.295316 -0.153118,-0.557815 -0.404684,-0.699999 L 7.907853,9.7655964 c -0.10934,-0.06566 -0.240632,-0.09842 -0.371881,-0.10934 h -0.06566 c -0.13118,0 -0.251566,0.04368 -0.371882,0.10934 L 0.404684,13.626528 C 0.153118,13.768712 0,14.042145 0,14.326527 l 0.0112,10.390612 c 0,0.142198 0.07658,0.273448 0.196882,0.35 0.12026,0.07658 0.273434,0.07658 0.404683,0 l 3.981248,-2.285933 c 0.251566,-0.153118 0.404684,-0.415618 0.404684,-0.7 V 17.22496 c 0,-0.284368 0.153132,-0.557816 0.404683,-0.7 l 1.695316,-0.973434 c 0.13118,-0.07658 0.2625,-0.10934 0.404684,-0.10934 0.142197,0 0.284381,0.03276 0.404697,0.10934 l 1.695301,0.973434 c 0.251566,0.142184 0.404698,0.415632 0.404698,0.7 v 4.856246 c 0,0.284382 0.153118,0.557816 0.404684,0.7 l 3.981248,2.285933 c 0.12026,0.07658 0.284367,0.07658 0.404683,0 0.12026,-0.06566 0.196882,-0.207802 0.196882,-0.35 z M 51.679695,2.9843504 V 22.278088 c 0,0.284368 -0.153118,0.557802 -0.404684,0.7 l -6.70468,3.871865 c -0.251566,0.142184 -0.557816,0.142184 -0.809382,0 L 37.05627,22.978088 c -0.251566,-0.142198 -0.404684,-0.415632 -0.404684,-0.7 v -7.743745 c 0,-0.284382 0.153118,-0.557816 0.404684,-0.7 l 6.704679,-3.8718786 c 0.251566,-0.142184 0.557816,-0.142184 0.809382,0 l 1.673433,0.9624986 c 0.185934,0.10934 0.426566,-0.03276 0.426566,-0.240618 V 0.40310195 c 0,-0.30625 0.328118,-0.503132 0.601551,-0.35 l 3.992196,2.23124845 c 0.251552,0.13118 0.415618,0.404684 0.415618,0.7 z M 46.648448,17.082776 c 0,-0.07658 -0.04368,-0.142184 -0.09842,-0.175 l -2.296881,-1.334382 c -0.06566,-0.03276 -0.142184,-0.03276 -0.207802,0 l -2.29688,1.334382 c -0.06566,0.03276 -0.09842,0.09842 -0.09842,0.175 v 2.657814 c 0,0.07658 0.04368,0.142184 0.09842,0.175 l 2.29688,1.323433 c 0.06566,0.03276 0.142184,0.03276 0.196868,0 l 2.296881,-1.323433 c 0.06566,-0.03276 0.09842,-0.09842 0.09842,-0.175 v -2.657814 z m 22.946868,-0.07658 C 69.846868,16.864012 70,16.590578 70,16.306196 v -1.870315 c 0,-0.284368 -0.153132,-0.557802 -0.404684,-0.699999 L 62.934372,9.8640164 c -0.251552,-0.142184 -0.557801,-0.142184 -0.809367,0 l -6.704681,3.8718656 c -0.251565,0.142197 -0.404697,0.415631 -0.404697,0.699999 v 7.743745 c 0,0.295316 0.153132,0.557816 0.404697,0.7 l 6.660931,3.795314 c 0.240618,0.142183 0.546867,0.142183 0.798433,0 l 4.024998,-2.242183 c 0.273433,-0.153131 0.273433,-0.546881 0,-0.699999 l -6.74843,-3.87188 c -0.13118,-0.07658 -0.207816,-0.207802 -0.207816,-0.35 v -2.428116 c 0,-0.142184 0.07658,-0.273434 0.207816,-0.35 l 2.099999,-1.214066 c 0.12026,-0.07658 0.284367,-0.07658 0.404683,0 l 2.099999,1.214066 c 0.12026,0.07658 0.207816,0.207816 0.207816,0.35 v 1.903116 c 0,0.30625 0.339066,0.503132 0.6125,0.35 z m -8.454692,0.382815 c -0.04368,0.03276 -0.07658,0.07658 -0.07658,0.13118 v 1.487499 c 0,0.05474 0.03276,0.10934 0.07658,0.13118 l 1.29063,0.74375 c 0.04368,0.03276 0.10934,0.03276 0.153118,0 l 1.290631,-0.74375 c 0.04368,-0.03276 0.07658,-0.07658 0.07658,-0.13118 v -1.487499 c 0,-0.05474 -0.03276,-0.10934 -0.07658,-0.13118 l -1.290631,-0.743749 c -0.04368,-0.03276 -0.10934,-0.03276 -0.153118,0 z m -27.803102,4.757813 v -7.699995 c 0,-0.284382 -0.175,-0.557816 -0.426566,-0.699999 L 26.228145,9.8968324 c -0.229684,-0.13118 -0.546868,-0.153132 -0.809368,0 L 18.735965,13.74683 c -0.251566,0.142183 -0.426566,0.404683 -0.426566,0.699999 v 7.699995 c 0,0.30625 0.207816,0.56875 0.4375,0.7 l 6.693746,3.849997 c 0.2625,0.153118 0.56875,0.142184 0.809381,0 l 6.671864,-3.849997 c 0.196882,-0.10934 0.339066,-0.295316 0.39375,-0.514066 0.0112,-0.05474 0.02184,-0.12026 0.02184,-0.185934 z m -8.126561,-13.6609386 -0.0875,0.05474 h 0.12026 z m 8.334377,14.2406226 -0.04368,-0.07658 v 0.09842 z"
     id="path624"
     style="fill:#ffffff;stroke-width:0.109375" />
</svg>
