<?xml version="1.0" encoding="UTF-8" standalone="no"?>
<svg
   viewBox="0 0 50 43.752331"
   version="1.1"
   id="svg305"
   sodipodi:docname="react.svg"
   width="50"
   height="43.752331"
   inkscape:version="1.2 (dc2aedaf03, 2022-05-15)"
   xmlns:inkscape="http://www.inkscape.org/namespaces/inkscape"
   xmlns:sodipodi="http://sodipodi.sourceforge.net/DTD/sodipodi-0.dtd"
   xmlns="http://www.w3.org/2000/svg"
   xmlns:svg="http://www.w3.org/2000/svg">
  <defs
     id="defs309" />
  <sodipodi:namedview
     id="namedview307"
     pagecolor="#505050"
     bordercolor="#ffffff"
     borderopacity="1"
     inkscape:showpageshadow="0"
     inkscape:pageopacity="0"
     inkscape:pagecheckerboard="1"
     inkscape:deskcolor="#505050"
     showgrid="false"
     inkscape:zoom="1.5332031"
     inkscape:cx="25.110828"
     inkscape:cy="21.849682"
     inkscape:window-width="1920"
     inkscape:window-height="1001"
     inkscape:window-x="-9"
     inkscape:window-y="-9"
     inkscape:window-maximized="1"
     inkscape:current-layer="svg305" />
  <!--! Font Awesome Pro 6.1.1 by @fontawesome - https://fontawesome.com License - https://fontawesome.com/license (Commercial License) Copyright 2022 Fonticons, Inc. -->
  <path
     d="m 40.83984,14.178459 c -0.52734,-0.17578 -1.05468,-0.34179 -1.58203,-0.49804 0.0879,-0.36133 0.16602,-0.72266 0.24414,-1.08399 1.20117,-5.8203102 0.41016,-10.4980402 -2.25586,-12.04101022 -2.56836,-1.47461 -6.75781,0.0586 -10.99609,3.75000002 -0.41992,0.36133 -0.83008,0.74218 -1.2207,1.12304 -0.26368,-0.2539 -0.53711,-0.50781 -0.81055,-0.75195 C 19.77539,0.73119878 15.32227,-0.92896122 12.65625,0.62377878 10.09766,2.1081488 9.33594,6.5124488 10.41016,12.020259 c 0.10742,0.54688 0.22461,1.08399 0.36132,1.63086 -0.625,0.17578 -1.24023,0.37109 -1.8164,0.57617 C 3.74023,16.033929 0,18.885499 0,21.834709 c 0,3.04688 3.98437,6.10352 9.4043,7.95899 0.43945,0.14648 0.8789,0.29297 1.32812,0.41992 -0.14648,0.58594 -0.27344,1.16211 -0.39062,1.75781 -1.02539,5.41992 -0.22461,9.7168 2.33398,11.19141 2.63672,1.52344 7.07031,-0.0391 11.38672,-3.81836 0.3418,-0.30273 0.68359,-0.61523 1.02539,-0.94727 0.42969,0.41993 0.87891,0.82032 1.32813,1.21094 4.17968,3.59375 8.31054,5.04883 10.85937,3.57422 2.63672,-1.52344 3.49609,-6.14258 2.38281,-11.76758 -0.0879,-0.42969 -0.18554,-0.86914 -0.29297,-1.31836 0.3125,-0.0879 0.61524,-0.18554 0.91797,-0.2832 5.63477,-1.86523 9.7168,-4.88281 9.7168,-7.97852 0,-2.95898 -3.84766,-5.83007 -9.16016,-7.65625 z M 27.62695,5.8874488 c 3.63282,-3.16406 7.02149,-4.4043 8.56446,-3.51563 1.65039,0.94727 2.28515,4.77539 1.25,9.8046902 -0.0684,0.33203 -0.13672,0.6543 -0.22461,0.97656 -2.16797,-0.48828 -4.36524,-0.83984 -6.57227,-1.03515 -1.26953,-1.81641 -2.65625,-3.5546902 -4.16016,-5.1855502 0.38086,-0.36133 0.75196,-0.70312 1.14258,-1.04492 z M 16.32812,26.903069 c 0.49805,0.84961 1.00586,1.69922 1.54297,2.5293 -1.52343,-0.16602 -3.03711,-0.41016 -4.53125,-0.73242 0.42969,-1.40625 0.9668,-2.86133 1.5918,-4.3457 0.44922,0.85937 0.9082,1.70898 1.39648,2.54882 z m -2.95898,-11.74804 c 1.40625,-0.3125 2.90039,-0.56641 4.45313,-0.76172 -0.51758,0.81054 -1.0254,1.64062 -1.50391,2.48047 -0.47852,0.83007 -0.94727,1.67968 -1.38672,2.53906 -0.61523,-1.45508 -1.13281,-2.88086 -1.5625,-4.25781 z m 2.67578,6.72851 c 0.64453,-1.34765 1.34766,-2.66601 2.08985,-3.96484 0.74218,-1.29883 1.54296,-2.5586 2.38281,-3.79883 1.46484,-0.10742 2.95898,-0.16602 4.48242,-0.16602 1.52344,0 3.02734,0.0586 4.48242,0.16602 0.83008,1.23047 1.6211,2.49023 2.37305,3.7793 0.75195,1.28906 1.45508,2.60742 2.11914,3.94531 -0.6543,1.34766 -1.35742,2.67578 -2.10938,3.98437 -0.74218,1.29883 -1.5332,2.5586 -2.36328,3.8086 -1.45508,0.10742 -2.96875,0.15625 -4.50195,0.15625 -1.5332,0 -3.01758,-0.0488 -4.45313,-0.13672 -0.8496,-1.24023 -1.65039,-2.50977 -2.40234,-3.80859 -0.75195,-1.29883 -1.44531,-2.61719 -2.09961,-3.96485 z m 17.63672,5 c 0.49805,-0.85937 0.9668,-1.72851 1.42578,-2.60742 0.625,1.41602 1.17188,2.85156 1.65039,4.32617 -1.51367,0.3418 -3.04687,0.60547 -4.58984,0.78125 0.52734,-0.82031 1.02539,-1.66015 1.51367,-2.5 z m 1.40625,-7.4707 c -0.45898,-0.85938 -0.92773,-1.71875 -1.41602,-2.55859 -0.47851,-0.83008 -0.97656,-1.6504 -1.49414,-2.46094 1.57227,0.19531 3.07618,0.45898 4.48243,0.78125 -0.44922,1.44531 -0.97657,2.85156 -1.57227,4.23828 z M 25.01953,8.4265088 c 1.02539,1.11328 1.99219,2.2851602 2.89063,3.4960902 -1.9336,-0.0879 -3.87696,-0.0879 -5.81055,0 0.95703,-1.25976 1.94336,-2.4316402 2.91992,-3.4960902 z m -11.32812,-5.98633 c 1.64062,-0.95703 5.2832,0.41016 9.12109,3.8086 0.24414,0.21484 0.48828,0.44922 0.74219,0.68359 -1.51367,1.63086 -2.91016,3.3691402 -4.18946,5.1855502 -2.20703,0.19531 -4.39453,0.53711 -6.5625,1.01562 -0.12695,-0.49804 -0.23437,-1.00586 -0.34179,-1.51367 -0.91797,-4.7265602 -0.3125,-8.2910202 1.23047,-9.1796902 z M 11.29883,28.182369 c -0.41016,-0.11719 -0.81055,-0.24414 -1.21094,-0.38086 -2.08008,-0.6543 -4.44336,-1.68945 -6.15234,-3.04687 -0.98633,-0.6836 -1.65039,-1.73829 -1.83594,-2.91993 0,-1.78711 3.08594,-4.07226 7.53906,-5.625 0.55664,-0.19531 1.12305,-0.37109 1.68945,-0.53711 0.66407,2.11915 1.46485,4.19922 2.39258,6.21094 -0.9375,2.04102 -1.74804,4.15039 -2.42187,6.29883 z m 11.38672,9.57031 c -1.61133,1.47461 -3.47657,2.64649 -5.50782,3.44727 -1.08398,0.51758 -2.33398,0.5664 -3.44726,0.12695 -1.55274,-0.89844 -2.19727,-4.3457 -1.31836,-8.98437 0.10742,-0.54688 0.22461,-1.09375 0.36133,-1.63086 2.1875,0.46875 4.39453,0.79101 6.63086,0.95703 1.28906,1.82617 2.70507,3.57422 4.21875,5.21484 -0.3125,0.30274 -0.625,0.59571 -0.9375,0.86914 z m 2.39257,-2.37304 c -0.99609,-1.07422 -1.99218,-2.26563 -2.95898,-3.54493 0.9375,0.0391 1.9043,0.0586 2.88086,0.0586 1.00586,0 1.99219,-0.0195 2.96875,-0.0684 -0.89844,1.24023 -1.86523,2.42187 -2.89063,3.55469 z m 12.76368,2.92968 c -0.0879,1.19141 -0.67383,2.30469 -1.61133,3.05664 -1.55274,0.89844 -4.86328,-0.27343 -8.4375,-3.33984 -0.41016,-0.35156 -0.82031,-0.73242 -1.24024,-1.12305 1.49414,-1.65039 2.8711,-3.39843 4.1211,-5.23437 2.23633,-0.18555 4.46289,-0.52735 6.66015,-1.02539 0.0977,0.40039 0.18555,0.80078 0.26368,1.1914 0.47851,2.10938 0.55664,4.30664 0.24414,6.47461 z m 1.77734,-10.49804 c -0.27344,0.0879 -0.54687,0.17578 -0.83008,0.2539 -0.68359,-2.1289 -1.52344,-4.20898 -2.49023,-6.23047 0.9375,-1.99218 1.72851,-4.04296 2.39258,-6.14257 0.50781,0.14648 0.99609,0.30273 1.46484,0.45898 4.55078,1.5625 7.74414,3.88672 7.74414,5.66406 0,1.91407 -3.4082,4.38477 -8.28125,5.9961 z M 25,26.346429 c 2.4707,0 4.47266,-2.00195 4.47266,-4.47265 0,-2.47071 -2.00196,-4.47266 -4.47266,-4.47266 -2.4707,0 -4.47266,2.00195 -4.47266,4.47266 0,2.4707 2.00196,4.47265 4.47266,4.47265 z"
     id="path303"
     style="fill:#ffffff;stroke-width:0.0976562" />
</svg>
