<?xml version="1.0" encoding="UTF-8" standalone="no"?>
<svg
   viewBox="0 0 30 29.250452"
   version="1.1"
   id="svg438"
   sodipodi:docname="github.svg"
   width="30"
   height="29.250452"
   inkscape:version="1.2 (dc2aedaf03, 2022-05-15)"
   xmlns:inkscape="http://www.inkscape.org/namespaces/inkscape"
   xmlns:sodipodi="http://sodipodi.sourceforge.net/DTD/sodipodi-0.dtd"
   xmlns="http://www.w3.org/2000/svg"
   xmlns:svg="http://www.w3.org/2000/svg">
  <defs
     id="defs442" />
  <sodipodi:namedview
     id="namedview440"
     pagecolor="#505050"
     bordercolor="#ffffff"
     borderopacity="1"
     inkscape:showpageshadow="0"
     inkscape:pageopacity="0"
     inkscape:pagecheckerboard="1"
     inkscape:deskcolor="#505050"
     showgrid="false"
     inkscape:zoom="1.5898438"
     inkscape:cx="15.410319"
     inkscape:cy="21.071253"
     inkscape:window-width="1920"
     inkscape:window-height="1001"
     inkscape:window-x="-9"
     inkscape:window-y="-9"
     inkscape:window-maximized="1"
     inkscape:current-layer="svg438" />
  <!--! Font Awesome Pro 6.1.1 by @fontawesome - https://fontawesome.com License - https://fontawesome.com/license (Commercial License) Copyright 2022 Fonticons, Inc. -->
  <path
     d="m 10.03427,23.55242 c 0,0.12097 -0.13911,0.21774 -0.31451,0.21774 -0.1996,0.0181 -0.33871,-0.0786 -0.33871,-0.21774 0,-0.12097 0.13911,-0.21774 0.31451,-0.21774 0.18146,-0.0181 0.33871,0.0786 0.33871,0.21774 z M 8.15323,23.28024 c -0.0423,0.12097 0.0786,0.26009 0.26008,0.29638 0.15725,0.0605 0.33871,0 0.375,-0.12097 0.0363,-0.12097 -0.0786,-0.26008 -0.26008,-0.31452 -0.15726,-0.0423 -0.33267,0.0181 -0.375,0.13911 z m 2.67338,-0.10282 c -0.1754,0.0423 -0.29637,0.15726 -0.27822,0.29637 0.0181,0.12097 0.1754,0.1996 0.35685,0.15726 0.17541,-0.0423 0.29637,-0.15726 0.27823,-0.27822 -0.0181,-0.11492 -0.18145,-0.19355 -0.35686,-0.17541 z M 14.80645,0 C 6.41734,0 0,6.36895 0,14.75807 c 0,6.70766 4.22177,12.44758 10.25202,14.46774 0.77419,0.13911 1.04637,-0.33871 1.04637,-0.73186 0,-0.375 -0.0182,-2.44354 -0.0182,-3.71371 0,0 -4.23387,0.90726 -5.12298,-1.80241 0,0 -0.68952,-1.76009 -1.68145,-2.21371 0,0 -1.38508,-0.9496 0.0968,-0.93146 0,0 1.50605,0.12097 2.33468,1.56049 1.32459,2.33468 3.54435,1.6633 4.40927,1.26411 0.13912,-0.96774 0.53226,-1.63911 0.96774,-2.03831 -3.38104,-0.375 -6.79233,-0.86491 -6.79233,-6.68346 0,-1.66331 0.45967,-2.49799 1.42741,-3.5625 C 6.76208,9.97984 6.24796,8.35887 7.07659,6.26613 8.34071,5.87299 11.24998,7.8992 11.24998,7.8992 c 1.20968,-0.33871 2.51008,-0.51412 3.79839,-0.51412 1.2883,0 2.58871,0.17541 3.79838,0.51412 0,0 2.90928,-2.03226 4.17339,-1.63307 0.82863,2.09879 0.31452,3.71371 0.15726,4.10686 0.96774,1.07056 1.56048,1.90524 1.56048,3.5625 0,5.83669 -3.5625,6.30242 -6.94355,6.68346 0.55646,0.47783 1.02823,1.38509 1.02823,2.80646 0,2.0383 -0.0181,4.56048 -0.0181,5.05645 0,0.39314 0.27822,0.87097 1.04637,0.73185 C 25.89919,27.20565 30,21.46573 30,14.75807 30,6.36895 23.19556,0 14.80645,0 Z M 5.87903,20.86089 c -0.0786,0.0605 -0.0605,0.1996 0.0423,0.31452 0.0968,0.0968 0.23589,0.13911 0.31452,0.0605 0.0786,-0.0605 0.0605,-0.1996 -0.0423,-0.31452 -0.0968,-0.0968 -0.23589,-0.13911 -0.31452,-0.0605 z M 5.22581,20.37097 c -0.0423,0.0786 0.0181,0.1754 0.13911,0.23589 0.0968,0.0605 0.21774,0.0423 0.26008,-0.0423 0.0423,-0.0786 -0.0181,-0.1754 -0.13911,-0.23589 -0.12097,-0.0363 -0.21774,-0.0181 -0.26008,0.0423 z m 1.95967,2.15323 c -0.0968,0.0786 -0.0605,0.26008 0.0786,0.375 0.13912,0.13911 0.31452,0.15725 0.39315,0.0605 0.0786,-0.0786 0.0423,-0.26008 -0.0786,-0.375 C 7.44556,22.44559 7.26411,22.42744 7.18548,22.5242 Z M 6.49597,21.63508 c -0.0968,0.0605 -0.0968,0.21775 0,0.35686 0.0968,0.13911 0.26008,0.1996 0.33871,0.13911 0.0968,-0.0786 0.0968,-0.23589 0,-0.375 -0.0847,-0.13911 -0.24194,-0.1996 -0.33871,-0.12097 z"
     id="path436"
     style="fill:#ffffff;stroke-width:0.0604839" />
</svg>
