<?xml version="1.0" encoding="UTF-8" standalone="no"?>
<svg
   viewBox="0 0 30 30"
   version="1.1"
   id="svg301"
   sodipodi:docname="linkedin.svg"
   width="30"
   height="30"
   inkscape:version="1.2 (dc2aedaf03, 2022-05-15)"
   xmlns:inkscape="http://www.inkscape.org/namespaces/inkscape"
   xmlns:sodipodi="http://sodipodi.sourceforge.net/DTD/sodipodi-0.dtd"
   xmlns="http://www.w3.org/2000/svg"
   xmlns:svg="http://www.w3.org/2000/svg">
  <defs
     id="defs305" />
  <sodipodi:namedview
     id="namedview303"
     pagecolor="#505050"
     bordercolor="#ffffff"
     borderopacity="1"
     inkscape:showpageshadow="0"
     inkscape:pageopacity="0"
     inkscape:pagecheckerboard="1"
     inkscape:deskcolor="#505050"
     showgrid="false"
     inkscape:zoom="1.5898438"
     inkscape:cx="15.410319"
     inkscape:cy="15.410319"
     inkscape:window-width="1920"
     inkscape:window-height="1001"
     inkscape:window-x="-9"
     inkscape:window-y="-9"
     inkscape:window-maximized="1"
     inkscape:current-layer="svg301" />
  <!--! Font Awesome Pro 6.1.1 by @fontawesome - https://fontawesome.com License - https://fontawesome.com/license (Commercial License) Copyright 2022 Fonticons, Inc. -->
  <path
     d="M 27.85714,0 H 2.13616 C 0.95759,0 0,0.97098 0,2.16295 v 25.6741 C 0,29.02902 0.95759,30 2.13616,30 H 27.85714 C 29.03571,30 30,29.02902 30,27.83705 V 2.16295 C 30,0.97098 29.03571,0 27.85714,0 Z M 9.06696,25.71429 H 4.62054 V 11.39732 H 9.07366 V 25.71429 Z M 6.84375,9.44196 c -1.42634,0 -2.57813,-1.15848 -2.57813,-2.57812 0,-1.41964 1.15179,-2.57813 2.57813,-2.57813 1.41964,0 2.57812,1.15849 2.57812,2.57813 0,1.42634 -1.15178,2.57812 -2.57812,2.57812 z M 25.73437,25.71429 H 21.28795 V 18.75 c 0,-1.66071 -0.0335,-3.79688 -2.31027,-3.79688 -2.31697,0 -2.67188,1.80804 -2.67188,3.67634 v 7.08483 H 11.85937 V 11.39732 H 16.125 v 1.95536 h 0.0603 c 0.59598,-1.125 2.0491,-2.31027 4.21205,-2.31027 4.5,0 5.33705,2.96652 5.33705,6.82366 z"
     id="path299"
     style="fill:#ffffff;stroke-width:0.0669643" />
</svg>
