<?xml version="1.0" encoding="UTF-8" standalone="no"?>
<svg
   viewBox="0 0 30 22.5"
   version="1.1"
   id="svg1351"
   sodipodi:docname="mail.svg"
   width="30"
   height="22.5"
   inkscape:version="1.2 (dc2aedaf03, 2022-05-15)"
   xmlns:inkscape="http://www.inkscape.org/namespaces/inkscape"
   xmlns:sodipodi="http://sodipodi.sourceforge.net/DTD/sodipodi-0.dtd"
   xmlns="http://www.w3.org/2000/svg"
   xmlns:svg="http://www.w3.org/2000/svg">
  <defs
     id="defs1355" />
  <sodipodi:namedview
     id="namedview1353"
     pagecolor="#505050"
     bordercolor="#ffffff"
     borderopacity="1"
     inkscape:showpageshadow="0"
     inkscape:pageopacity="0"
     inkscape:pagecheckerboard="1"
     inkscape:deskcolor="#505050"
     showgrid="false"
     inkscape:zoom="1.5898438"
     inkscape:cx="15.410319"
     inkscape:cy="12.265356"
     inkscape:window-width="1920"
     inkscape:window-height="1001"
     inkscape:window-x="-9"
     inkscape:window-y="-9"
     inkscape:window-maximized="1"
     inkscape:current-layer="svg1351" />
  <!--! Font Awesome Pro 6.1.1 by @fontawesome - https://fontawesome.com License - https://fontawesome.com/license (Commercial License) Copyright 2022 Fonticons, Inc. -->
  <path
     d="M 27.1875,0 C 28.740234,0 30,1.259178 30,2.8125 c 0,0.884766 -0.416016,1.716798 -1.125,2.25 l -12.75,9.5625 c -0.667968,0.498048 -1.582032,0.498048 -2.25,0 L 1.125,5.0625 C 0.416778,4.529298 0,3.697266 0,2.8125 0,1.259178 1.259178,0 2.8125,0 Z M 12.75,16.125 c 1.335936,1.001952 3.164064,1.001952 4.5,0 L 30,6.5625 V 18.75 c 0,2.068362 -1.681638,3.75 -3.75,3.75 H 3.75 C 1.67871,22.5 0,20.818362 0,18.75 V 6.5625 Z"
     id="path1349"
     style="fill:#ffffff;stroke-width:0.0585937" />
</svg>
