<?xml version="1.0" encoding="UTF-8" standalone="no"?>
<svg
   width="157"
   height="135"
   viewBox="0 0 157 135"
   fill="none"
   version="1.1"
   id="svg6"
   sodipodi:docname="lanesb-tab-icon.svg"
   inkscape:version="1.2 (dc2aedaf03, 2022-05-15)"
   xmlns:inkscape="http://www.inkscape.org/namespaces/inkscape"
   xmlns:sodipodi="http://sodipodi.sourceforge.net/DTD/sodipodi-0.dtd"
   xmlns="http://www.w3.org/2000/svg"
   xmlns:svg="http://www.w3.org/2000/svg">
  <defs
     id="defs10" />
  <sodipodi:namedview
     id="namedview8"
     pagecolor="#571444"
     bordercolor="#ffffff"
     borderopacity="1"
     inkscape:showpageshadow="0"
     inkscape:pageopacity="0"
     inkscape:pagecheckerboard="1"
     inkscape:deskcolor="#505050"
     showgrid="false"
     inkscape:zoom="6.0296296"
     inkscape:cx="72.890049"
     inkscape:cy="42.208231"
     inkscape:window-width="1920"
     inkscape:window-height="1001"
     inkscape:window-x="-9"
     inkscape:window-y="-9"
     inkscape:window-maximized="1"
     inkscape:current-layer="layer1" />
  <g
     inkscape:groupmode="layer"
     id="layer1"
     inkscape:label="Layer 1">
    <path
       d="m 33.07208,35.564251 c -1.664216,1.996698 -2.400622,4.640127 -1.988404,7.137387 0.412218,2.497261 1.967178,4.813393 4.19863,6.253794 2.231543,1.440317 5.108153,1.984645 7.767169,1.469721 2.659015,-0.514838 5.063219,-2.081834 6.491463,-4.230855 1.608531,-2.420243 1.942918,-5.479613 1.174444,-8.233907 -0.768383,-2.75421 -2.576958,-5.204201 -4.871538,-7.085929 -2.786742,-2.285274 -6.313841,-3.776194 -9.995498,-4.238377 -3.681657,-0.462269 -7.503445,0.104199 -10.854299,1.5964 -3.350854,1.492202 -6.219322,3.903215 -8.165585,6.846845 -1.946254,2.943631 -2.965137,6.408938 -2.914074,9.864415 0.08662,5.860421 3.158373,11.347556 6.920175,16.049141 3.761877,4.701672 8.270083,8.863032 11.901384,13.652576 5.086009,6.708198 8.367302,14.641136 9.07467,22.823077 0.3365,3.891851 0.08941,7.862331 -1.14265,11.594331 -1.232059,3.73286 -3.490067,7.22295 -6.737545,9.69585 -3.247385,2.47376 -7.520078,3.86193 -11.692151,3.43625 -2.08599,-0.21284 -4.124032,-0.87274 -5.873402,-1.95062 -1.74938,-1.07789 -3.203913,-2.57804 -4.130971,-4.32865 -1.0324,-1.95062 -1.395815,-4.19872 -1.045099,-6.3485 0.350715,-2.14894 1.411262,-4.19102 2.988927,-5.7946 1.577665,-1.60359 3.664583,-2.76524 5.924843,-3.31829 2.260214,-0.552191 4.685553,-0.496631 6.91967,0.14104 2.346958,0.67015 4.45105,1.96088 6.246301,3.51831 1.795251,1.55742 3.299855,3.38153 4.704207,5.25437 2.808611,3.74653 5.334755,7.81361 9.215445,10.61133 4.355944,3.14134 10.247459,4.3577 15.623012,3.22682 5.375462,-1.13088 10.130575,-4.58764 12.609395,-9.16674"
       stroke="white"
       stroke-width="2"
       id="path2"
       style="stroke:#ffffff;stroke-width:4;stroke-dasharray:none;stroke-opacity:1" />
    <path
       d="m 87.73706,11.802835 c -4.246504,-1.163502 -8.938948,-0.857035 -12.969051,0.846992 -4.030011,1.704035 -7.363682,4.791295 -9.213515,8.532545 -1.653373,3.343756 -2.121736,7.147217 -1.58657,10.79391 0.535258,3.646778 2.047121,7.139011 4.153511,10.254711 4.212596,6.231398 10.649477,10.863831 17.262879,14.90612 3.019866,1.845742 6.129416,3.61498 8.738626,5.940344 3.17847,2.832679 5.53618,6.461507 6.7188,10.40558 1.18262,3.944158 1.18353,8.193391 -0.0331,12.128745 -1.2157,3.935355 -3.64903,7.542901 -6.9533,10.248047 -3.30427,2.7054 -7.470551,4.495331 -11.832008,5.048381 -5.959146,0.75477 -12.238435,-0.87189 -16.869865,-4.440631 -4.631522,-3.569161 -7.526327,-9.038177 -7.665448,-14.631135 -0.106317,-4.275303 1.324132,-8.482566 3.389815,-12.302866 2.065775,-3.820386 4.757686,-7.311422 7.365427,-10.83323 5.95299,-8.039957 11.54623,-16.355327 18.453311,-23.705471 6.906988,-7.350143 15.308478,-13.782929 25.239918,-16.93906 4.18742,-1.331006 8.66797,-2.061362 13.05755,-1.533805 4.38865,0.527549 8.68542,2.403721 11.47703,5.598232 1.55386,1.777189 2.60692,3.913472 3.15642,6.146091 0.54858,2.232619 0.60188,4.559691 0.27107,6.829236 -0.66161,4.539091 -2.82561,8.782425 -5.44355,12.661963 -3.1509,4.668249 -7.0939,9.003558 -12.18092,11.829569 -2.54442,1.412964 -5.35534,2.430588 -8.28202,2.859008 -2.9267,0.428333 -5.96917,0.257461 -8.77824,-0.619294 -1.81299,-0.566211 -3.5203,-1.421852 -5.04107,-2.501193 -1.01906,-0.722808 -1.9646,-1.555968 -2.65543,-2.559574 -0.69101,-1.003692 -1.116,-2.190991 -1.04175,-3.380769 0.0798,-1.278419 0.73934,-2.497602 1.71328,-3.402138 0.97495,-0.904621 2.24671,-1.505452 3.58187,-1.81779 2.67031,-0.624594 5.48765,-0.124628 8.14878,0.530138 9.5106,2.339809 18.52131,6.722559 25.54352,13.131326 6.83293,6.235502 11.72423,14.488215 12.78739,23.337057 0.53113,4.424464 0.10567,8.958596 -1.36456,13.195355 -1.46932,4.237181 -3.99078,8.169201 -7.38978,11.302851 -5.42241,5.0005 -13.08327,7.83156 -20.71655,7.65718 -7.63329,-0.17437 -15.13518,-3.35333 -20.28744,-8.59488"
       stroke="white"
       stroke-width="2"
       id="path4"
       style="stroke:#ffffff;stroke-width:4;stroke-dasharray:none;stroke-opacity:1" />
  </g>
</svg>
